<svg xmlns="http://www.w3.org/2000/svg" viewBox="0 0 24 24" fill="currentColor" class="w-6 h-6">
  <path fill-rule="evenodd" d="M8.25 2.25h7.5a.75.75 0 0 1 .75.75v.516c.444.113.86.285 1.234.521a.75.75 0 0 1 .521 1.234A8.25 8.25 0 0 1 12 21.75a8.25 8.25 0 0 1-6.255-16.529.75.75 0 0 1 .52-1.234c.375-.236.79-.408 1.235-.521V3a.75.75 0 0 1 .75-.75ZM9 4.5v.191a.75.75 0 0 1-.362.646 6.75 6.75 0 0 0-4.04 13.116.75.75 0 0 1 .13.882l.017.028a.75.75 0 0 1-1.092.203 9.75 9.75 0 0 1 7.57-19.332.75.75 0 0 1 .434.912l-.004.01-.004.009a.75.75 0 0 1-.646.362H9Z" clip-rule="evenodd" />
</svg>
